HIERARCHY
ROOT Hips
{
	OFFSET 0.00000 0.00000 0.00000
	CHANNELS 6 Xposition Yposition Zposition Zrotation Yrotation Xrotation 
	JOINT LHipJoint
	{
		OFFSET 0 0 0
		CHANNELS 3 Zrotation Yrotation Xrotation
		JOINT LeftHip
		{
			OFFSET 1.53927 -1.56553 0.51726
			CHANNELS 3 Zrotation Yrotation Xrotation
			JOINT LeftKnee
			{
				OFFSET 2.38199 -6.54447 0.00000
				CHANNELS 3 Zrotation Yrotation Xrotation
				JOINT LeftAnkle
				{
					OFFSET 2.35499 -6.47028 0.00000
					CHANNELS 3 Zrotation Yrotation Xrotation
					JOINT LeftToe
					{
						OFFSET 0.13641 -0.37478 1.84251
						CHANNELS 3 Zrotation Yrotation Xrotation
						End Site
						{
							OFFSET 0.00000 -0.00000 0.95212
						}
					}
				}
			}
		}
	}
	JOINT RHipJoint
	{
		OFFSET 0 0 0
		CHANNELS 3 Zrotation Yrotation Xrotation
		JOINT RightHip
		{
			OFFSET -1.43919 -1.56553 0.51726
			CHANNELS 3 Zrotation Yrotation Xrotation
			JOINT RightKnee
			{
				OFFSET -2.34860 -6.45274 0.00000
				CHANNELS 3 Zrotation Yrotation Xrotation
				JOINT RightAnkle
				{
					OFFSET -2.25563 -6.19730 0.00000
					CHANNELS 3 Zrotation Yrotation Xrotation
					JOINT RightToe
					{
						OFFSET -0.19755 -0.54277 1.84912
						CHANNELS 3 Zrotation Yrotation Xrotation
						End Site
						{
							OFFSET -0.00000 -0.00000 0.97032
						}
					}
				}
			}
		}
	}
	JOINT lowerback
	{
		OFFSET 0 0 0
		CHANNELS 3 Zrotation Yrotation Xrotation
		JOINT Chest
		{
			OFFSET -0.06402 1.88434 -0.00445
			CHANNELS 3 Zrotation Yrotation Xrotation
			JOINT Chest2
			{
				OFFSET 0.00756 1.88511 0.04237
				CHANNELS 3 Zrotation Yrotation Xrotation
				JOINT lowerneck
				{
					OFFSET 0 0 0
					CHANNELS 3 Zrotation Yrotation Xrotation
					JOINT Neck
					{
						OFFSET -0.06230 1.34710 0.03308
						CHANNELS 3 Zrotation Yrotation Xrotation
						JOINT Head
						{
							OFFSET -0.02442 1.34501 -0.13654
							CHANNELS 3 Zrotation Yrotation Xrotation
							End Site
							{
								OFFSET -0.00508 1.35584 -0.05075
							}
						}
					}
				}
				JOINT LeftCollar
				{
					OFFSET 0 0 0
					CHANNELS 3 Zrotation Yrotation Xrotation
					JOINT LeftShoulder
					{
						OFFSET 2.76911 0.54460 0.39412
CHANNELS 3 Zrotation Xrotation Yrotation
						JOINT LeftElbow
						{
OFFSET 0 -4.409190 -0.000000
CHANNELS 3 Zrotation Xrotation Yrotation
							JOINT LeftWrist
							{
OFFSET 0 -3.038570 -0.000000
CHANNELS 3 Zrotation Xrotation Yrotation
								JOINT lhand
								{
									OFFSET 0 0 0
CHANNELS 3 Zrotation Xrotation Yrotation
									JOINT LFingers
									{
OFFSET 0 -0.523210 -0.000000
CHANNELS 3 Zrotation Xrotation Yrotation
										End Site
										{
OFFSET 0 -0.421820 -0.000000
										}
									}
								}
								JOINT LThumb
								{
OFFSET 0 0.000000 0.000000
CHANNELS 3 Zrotation Xrotation Yrotation
									End Site
									{
OFFSET 0 -0.428260 0.428260
									}
								}
							}
						}
					}
				}
				JOINT RightCollar
				{
					OFFSET 0 0 0
					CHANNELS 3 Zrotation Yrotation Xrotation
					JOINT RightShoulder
					{
						OFFSET -2.99050 0.75949 0.48975
CHANNELS 3 Zrotation Xrotation Yrotation
						JOINT RightElbow
						{
OFFSET 0 -4.619690 -0.000000
CHANNELS 3 Zrotation Xrotation Yrotation
							JOINT RightWrist
							{
OFFSET 0 -3.093820 -0.000000
CHANNELS 3 Zrotation Xrotation Yrotation
								JOINT rhand
								{
									OFFSET 0 0 0
CHANNELS 3 Zrotation Xrotation Yrotation
									JOINT RFingers
									{
OFFSET 0 -0.500900 -0.000000
CHANNELS 3 Zrotation Xrotation Yrotation
										End Site
										{
OFFSET 0 -0.403840 -0.000000
										}
									}
								}
								JOINT RThumb
								{
OFFSET 0 0.000000 0.000000
CHANNELS 3 Zrotation Xrotation Yrotation
									End Site
									{
OFFSET 0 -0.410000 0.410000
									}
								}
							}
						}
					}
				}
			}
		}
	}
}
MOTION
Frames: 12
Frame Time: 0.008333333333333333
17.989100 16.155200 0.455900 15.359700 -79.575300 -8.024900 0.000000 0.000000 0.000000 -20.181500 -23.636500 -6.435400 1.725900 8.270100 23.537600 0.662700 3.485700 -17.034700 0.062500 1.613400 4.438300 0.000000 0.000000 0.000000 16.188800 16.936600 -7.038200 -1.783100 -8.398800 23.932000 -0.927500 -14.115100 -28.186700 -0.393300 -4.026900 11.152200 -5.602800 -1.185400 -4.409500 0.534100 -1.572600 -5.239800 3.663300 -0.643100 -2.794000 -3.549600 -2.443300 0.087700 -4.013200 -3.049600 7.962400 -0.740400 -1.786500 2.489400 -0.000000 0.000000 0.000000 -3.218200 19.790000 -12.221100 23.122300 -34.222300 7.207000 20.008900 10.306600 14.740100 0.000000 0.000000 0.000000 -7.125000 0.000000 0.000000 -5.098600 14.381700 -3.687300 -0.000000 0.000000 0.000000 -3.669400 18.776400 25.214900 -17.052900 -26.927500 -4.111300 -12.278300 20.535800 49.437100 0.000000 0.000000 0.000000 7.125000 0.000000 -0.000000 54.151800 74.397300 -40.216600
18.006664 16.161906 0.426712 14.986793 -79.164165 -7.542949 0.000000 0.000000 0.000000 -19.974762 -23.666967 -6.818230 1.750855 8.326725 23.710817 0.674867 3.059246 -16.925740 0.053074 1.484742 4.083780 0.000000 0.000000 0.000000 16.159659 16.681411 -7.298919 -1.777032 -8.385355 23.890817 -0.910513 -14.131915 -28.080706 -0.342809 -3.761644 10.407183 -5.665843 -1.259107 -4.369970 0.555392 -1.674585 -5.297502 3.720223 -0.688866 -2.864340 -3.404153 -2.455036 0.454873 -4.296479 -3.079319 7.830201 -0.846790 -1.799494 2.372140 0.000000 0.000000 0.000000 -3.239887 20.269240 -12.472599 23.652278 -34.793992 7.507381 19.992541 10.251534 14.458807 0.000000 0.000000 0.000000 -7.125000 0.000000 0.000000 -5.098781 14.678759 -3.654847 0.000000 0.000000 0.000000 -3.946398 18.992462 26.531915 -17.308931 -27.263190 -4.227940 -11.870065 18.012125 50.082279 0.000000 0.000000 0.000000 7.125000 0.000000 0.000000 56.528692 74.555492 -42.384256
18.022187 16.158272 0.399528 14.579526 -78.972989 -7.160005 0.000000 0.000000 0.000000 -19.795830 -23.873618 -6.977378 1.764903 8.358053 23.807114 0.666291 2.966616 -16.776841 0.073148 1.743175 4.796519 0.000000 0.000000 0.000000 16.243054 16.527522 -7.423304 -1.786828 -8.407147 23.957623 -0.918130 -14.063199 -28.068150 -0.305216 -3.551612 9.818545 -5.644392 -1.198911 -4.235835 0.570681 -1.594281 -5.193209 3.727332 -0.649705 -2.838472 -3.547866 -2.418563 0.627517 -4.159155 -3.052653 7.552125 -0.770818 -1.775566 2.253512 0.000000 0.000000 0.000000 -3.110608 20.578661 -13.259556 24.257142 -35.434424 7.855330 20.525386 9.841808 15.040175 0.000000 0.000000 0.000000 -7.125000 0.000000 0.000000 -4.761733 14.010541 -3.479599 0.000000 0.000000 0.000000 -4.173340 18.744007 27.531987 -17.372249 -27.345830 -4.256981 -11.568942 15.942696 50.327054 0.000000 0.000000 0.000000 7.125000 0.000000 0.000000 57.561014 74.550518 -43.266593
18.044765 16.155022 0.371693 14.100798 -78.558741 -6.510050 0.000000 0.000000 0.000000 -19.504032 -23.964482 -7.595868 1.795618 8.426764 24.017973 0.662152 2.588583 -16.525472 0.043209 1.331780 3.662370 0.000000 0.000000 0.000000 16.286306 16.379106 -7.738004 -1.792428 -8.419612 23.995998 -0.875723 -14.326274 -28.023025 -0.282203 -3.416514 9.440640 -5.614050 -1.299198 -4.175849 0.582575 -1.732797 -5.216930 3.721372 -0.717950 -2.882455 -3.343942 -2.504479 0.196727 -4.568601 -3.118622 7.684755 -0.946357 -1.821947 2.365494 0.000000 0.000000 0.000000 -3.035504 21.191053 -13.853312 25.138796 -36.344160 8.372595 20.359841 10.320161 14.257832 0.000000 0.000000 0.000000 -7.125000 0.000000 0.000000 -4.840721 14.851791 -3.450135 0.000000 0.000000 0.000000 -4.570823 18.367606 27.680756 -17.313405 -27.269023 -4.229932 -11.912113 17.470003 48.663576 0.000000 0.000000 0.000000 7.125000 0.000000 0.000000 52.065325 73.854552 -37.954658
18.072840 16.159344 0.350978 13.447016 -78.511657 -5.569264 0.000000 0.000000 0.000000 -19.114680 -23.882340 -8.280119 1.839491 8.523407 24.315385 0.683302 2.232440 -16.579134 0.051146 1.454426 4.000159 0.000000 0.000000 0.000000 16.321803 16.353237 -8.270635 -1.794091 -8.423280 24.007238 -0.817915 -14.355438 -27.629341 -0.272923 -3.359582 9.281458 -5.350247 -1.250966 -4.348405 0.558685 -1.665102 -5.224454 3.545779 -0.696019 -2.805675 -3.582215 -2.436428 0.515146 -4.328846 -3.072262 7.074817 -0.813623 -1.775446 2.115136 0.000000 0.000000 0.000000 -2.819560 21.601066 -14.539788 25.875381 -37.085273 8.812487 20.323381 10.495409 13.641074 0.000000 0.000000 0.000000 -7.125000 0.000000 0.000000 -4.841504 15.505203 -3.382999 0.000000 0.000000 0.000000 -4.858062 18.249111 28.306870 -17.635207 -27.687499 -4.378448 -12.797021 17.828945 48.407454 0.000000 0.000000 0.000000 7.125000 0.000000 0.000000 50.571521 74.046968 -36.916318
18.098502 16.162036 0.332543 13.420017 -78.459783 -5.387269 0.000000 0.000000 0.000000 -18.941708 -23.868451 -8.805737 1.895693 8.645213 24.691797 0.688528 2.002267 -16.524052 0.090300 1.933780 5.322856 0.000000 0.000000 0.000000 16.252106 16.260311 -8.635994 -1.791345 -8.417240 23.988569 -0.809479 -14.230580 -27.440078 -0.290923 -3.468668 9.586438 -5.261271 -1.240086 -4.459335 0.581682 -1.637268 -5.087721 3.515503 -0.691102 -2.604194 -4.245841 -2.213277 0.426879 -3.613010 -2.800758 6.740424 -0.468224 -1.627143 2.042661 0.000000 0.000000 0.000000 -2.755329 21.506279 -14.977296 26.186843 -37.392502 9.000932 20.914095 10.490760 14.204276 0.000000 0.000000 0.000000 -7.125000 0.000000 0.000000 -4.460357 14.850284 -3.177627 0.000000 0.000000 0.000000 -5.359256 17.794103 28.944211 -17.799811 -27.900080 -4.455217 -11.839505 17.079307 47.918058 0.000000 0.000000 0.000000 7.125000 0.000000 0.000000 49.965686 73.415399 -35.821343
18.130966 16.167189 0.313717 13.197142 -78.270878 -5.018362 0.000000 0.000000 0.000000 -18.724305 -23.893606 -9.410937 1.941627 8.743370 24.995911 0.690030 1.652480 -16.374959 0.164528 2.606409 7.185166 0.000000 0.000000 0.000000 16.222905 16.034400 -9.103794 -1.800883 -8.438399 24.053777 -0.763992 -14.334799 -27.207088 -0.264311 -3.307362 9.135657 -5.148843 -1.284685 -4.283823 0.635774 -1.706083 -5.081299 3.510757 -0.725090 -2.689253 -3.956869 -2.159259 0.462820 -4.164466 -2.726385 6.195749 -0.680177 -1.578816 1.846501 0.000000 0.000000 0.000000 -2.736915 21.934870 -15.626553 26.988525 -38.166705 9.492584 21.007890 10.533438 14.005437 0.000000 0.000000 0.000000 -7.125000 0.000000 0.000000 -4.387295 15.050844 -3.106884 0.000000 0.000000 0.000000 -6.014308 17.603505 29.922471 -18.180904 -28.387777 -4.635173 -11.659260 16.587516 47.953706 0.000000 0.000000 0.000000 7.125000 0.000000 0.000000 50.218320 73.369329 -35.980422
18.164699 16.166758 0.297321 12.928234 -78.176725 -4.697011 0.000000 0.000000 0.000000 -18.514280 -23.895723 -9.989244 1.985450 8.835755 25.282819 0.695186 1.100185 -16.187253 0.244750 3.181118 8.783648 0.000000 0.000000 0.000000 16.235158 15.991291 -9.418857 -1.818563 -8.477396 24.173716 -0.758637 -14.309067 -27.140310 -0.303827 -3.543052 9.794663 -5.038840 -1.174751 -4.115143 0.633227 -1.567728 -5.049694 3.452962 -0.656613 -2.765969 -3.635340 -2.294408 0.646132 -4.635638 -2.913988 5.874080 -0.876139 -1.663556 1.698762 0.000000 0.000000 0.000000 -2.498161 22.301626 -16.499755 27.739324 -38.874940 9.959788 21.274798 10.842817 13.714307 0.000000 0.000000 0.000000 -7.125000 0.000000 0.000000 -4.191993 15.331336 -2.942533 0.000000 0.000000 0.000000 -6.411709 17.692594 30.362589 -18.742730 -29.097404 -4.905298 -11.376392 15.983261 48.375248 0.000000 0.000000 0.000000 7.125000 0.000000 0.000000 51.660925 73.500628 -37.275046
18.199469 16.161463 0.280478 12.995194 -77.936826 -4.740050 0.000000 0.000000 0.000000 -18.390317 -23.838050 -10.554047 2.036053 8.940722 25.610209 0.702692 0.371875 -15.981458 0.345388 3.770645 10.433087 0.000000 0.000000 0.000000 16.168590 15.920494 -9.680856 -1.838362 -8.520887 24.307741 -0.763037 -14.322411 -27.187014 -0.345451 -3.776582 10.448950 -5.056314 -1.203740 -3.957966 0.648878 -1.608213 -4.969215 3.480553 -0.675805 -2.765150 -3.528507 -2.178917 1.032263 -4.732825 -2.806547 5.150217 -0.905678 -1.581308 1.398280 0.000000 0.000000 0.000000 -2.291630 22.401833 -17.150723 28.224201 -39.320205 10.266082 21.755609 11.048244 13.971457 0.000000 0.000000 0.000000 -7.125000 0.000000 0.000000 -3.874972 15.007065 -2.745488 0.000000 0.000000 0.000000 -6.943444 17.606622 31.155109 -19.255850 -29.735058 -5.157318 -11.895501 16.028745 48.530903 0.000000 0.000000 0.000000 7.125000 0.000000 0.000000 51.683512 73.778426 -37.564404
18.234948 16.158758 0.263167 13.266456 -77.815608 -4.987366 0.000000 0.000000 0.000000 -18.311346 -23.544788 -11.110482 2.094447 9.060036 25.983370 0.719587 -0.326971 -15.923302 0.413911 4.129663 11.441802 0.000000 0.000000 0.000000 16.071591 15.915245 -9.943534 -1.869282 -8.588301 24.515631 -0.778803 -14.243773 -27.224652 -0.374965 -3.933028 10.888324 -5.173512 -1.293930 -3.834430 0.765144 -1.722995 -4.851360 3.665625 -0.729435 -2.694700 -3.369410 -2.078436 1.349965 -5.049213 -2.717081 4.305359 -1.012619 -1.507744 1.072609 0.000000 0.000000 0.000000 -2.269547 22.872626 -17.910315 29.366565 -40.343872 10.997427 22.318889 10.938814 14.237973 0.000000 0.000000 0.000000 -7.125000 0.000000 0.000000 -3.504049 14.661405 -2.507764 0.000000 0.000000 0.000000 -7.797053 17.339004 32.462797 -19.651837 -30.220608 -5.355054 -12.516881 16.117132 48.290523 0.000000 0.000000 0.000000 7.125000 0.000000 0.000000 50.457880 73.877246 -36.661197
18.277352 16.151609 0.250403 13.195533 -77.649880 -4.856983 0.000000 0.000000 0.000000 -18.149804 -23.091561 -11.895621 2.165441 9.202276 26.430358 0.725215 -0.976814 -15.789474 0.351971 3.810935 10.545478 0.000000 0.000000 0.000000 15.999790 15.915358 -10.327595 -1.907382 -8.670398 24.769541 -0.767433 -14.306718 -27.203869 -0.365357 -3.882645 10.746681 -5.049599 -1.280513 -3.572250 0.745681 -1.718631 -4.828449 3.582012 -0.727170 -2.820898 -3.519770 -2.093273 1.009820 -4.878057 -2.719736 4.291985 -0.939561 -1.511763 1.130062 0.000000 0.000000 0.000000 -1.919486 23.130676 -18.609106 30.016987 -40.907030 11.421153 22.490599 11.141618 14.947893 0.000000 0.000000 0.000000 -7.125000 0.000000 0.000000 -3.427663 13.883726 -2.509380 0.000000 0.000000 0.000000 -8.349552 17.332598 33.123231 -20.242190 -30.932031 -5.655806 -11.865708 15.720532 48.647556 0.000000 0.000000 0.000000 7.125000 0.000000 0.000000 52.054827 73.830497 -37.919516
18.315215 16.146434 0.246148 13.565944 -77.436865 -5.231620 0.000000 0.000000 0.000000 -18.190512 -22.808999 -12.475998 2.246302 9.361140 26.931828 0.726888 -1.770067 -15.601792 0.484024 4.460711 12.376688 0.000000 0.000000 0.000000 15.828515 15.998376 -10.522161 -1.942420 -8.745041 25.000840 -0.762498 -14.463400 -27.328549 -0.351531 -3.809253 10.540577 -5.015612 -1.327909 -3.332452 0.764595 -1.789823 -4.768124 3.586673 -0.761282 -2.885409 -3.521603 -2.013184 0.378399 -5.070524 -2.559361 4.555394 -1.011224 -1.451603 1.320272 0.000000 0.000000 0.000000 -1.792016 23.540196 -19.242669 30.987671 -41.724980 12.061659 23.038725 11.181106 15.240829 0.000000 0.000000 0.000000 -7.125000 0.000000 0.000000 -3.075334 13.504399 -2.275445 0.000000 0.000000 0.000000 -9.100567 17.337927 33.824888 -20.935103 -31.752412 -6.015813 -11.982839 15.973943 48.305995 0.000000 0.000000 0.000000 7.125000 0.000000 0.000000 50.952853 73.687140 -36.880486
